<svg width="46" height="52" viewBox="0 0 46 52" fill="none" xmlns="http://www.w3.org/2000/svg">
<path d="M37.7482 6.90219C37.5453 6.90219 37.3424 6.85146 37.1649 6.75001C32.2953 4.23914 28.0851 3.17393 23.038 3.17393C18.0163 3.17393 13.2482 4.36596 8.91124 6.75001C8.30254 7.07972 7.54167 6.85146 7.1866 6.24277C6.85689 5.63407 7.08515 4.84784 7.69385 4.51813C12.4112 1.95654 17.5851 0.637695 23.038 0.637695C28.4402 0.637695 33.1576 1.82972 38.3315 4.49277C38.9656 4.82248 39.1938 5.58335 38.8641 6.19204C38.6359 6.64856 38.2047 6.90219 37.7482 6.90219ZM1.45472 20.2174C1.20109 20.2174 0.94747 20.1413 0.719209 19.9891C0.135876 19.5833 0.00906393 18.7971 0.414861 18.2138C2.92573 14.6631 6.12138 11.8732 9.92573 9.9203C17.8895 5.81161 28.0851 5.78625 36.0743 9.89494C39.8786 11.8478 43.0743 14.6123 45.5851 18.1377C45.9909 18.6957 45.8641 19.5073 45.2808 19.9131C44.6975 20.3189 43.9112 20.192 43.5054 19.6087C41.2228 16.4131 38.3315 13.9022 34.9076 12.1522C27.6286 8.42393 18.3207 8.42393 11.067 12.1776C7.61776 13.9529 4.72646 16.4891 2.44385 19.6848C2.24095 20.0399 1.86051 20.2174 1.45472 20.2174ZM17.3062 50.8297C16.9765 50.8297 16.6467 50.7029 16.4185 50.4493C14.212 48.2428 13.0199 46.8225 11.3207 43.7536C9.57066 40.6341 8.65761 36.8297 8.65761 32.7464C8.65761 25.2138 15.0996 19.0761 23.0127 19.0761C30.9257 19.0761 37.3678 25.2138 37.3678 32.7464C37.3678 33.4565 36.8098 34.0145 36.0996 34.0145C35.3895 34.0145 34.8315 33.4565 34.8315 32.7464C34.8315 26.6087 29.5308 21.6123 23.0127 21.6123C16.4946 21.6123 11.1938 26.6087 11.1938 32.7464C11.1938 36.3986 12.0054 39.7718 13.5525 42.5109C15.1757 45.4275 16.2917 46.6703 18.2446 48.6486C18.7265 49.1558 18.7265 49.942 18.2446 50.4493C17.9656 50.7029 17.6359 50.8297 17.3062 50.8297ZM35.4909 46.1377C32.4728 46.1377 29.8098 45.3768 27.6286 43.8804C23.8496 41.3189 21.5924 37.1594 21.5924 32.7464C21.5924 32.0362 22.1504 31.4783 22.8605 31.4783C23.5707 31.4783 24.1286 32.0362 24.1286 32.7464C24.1286 36.3225 25.9547 39.6957 29.0489 41.7754C30.8496 42.9928 32.9547 43.5761 35.4909 43.5761C36.0996 43.5761 37.1141 43.5 38.1286 43.3225C38.8134 43.1957 39.4728 43.6522 39.5996 44.3623C39.7265 45.0471 39.2699 45.7065 38.5598 45.8333C37.1141 46.1123 35.846 46.1377 35.4909 46.1377ZM30.3931 51.3623C30.2917 51.3623 30.1649 51.337 30.0634 51.3116C26.0308 50.1957 23.3931 48.6993 20.6286 45.9855C17.0779 42.4602 15.125 37.7681 15.125 32.7464C15.125 28.6377 18.625 25.2899 22.9366 25.2899C27.2482 25.2899 30.7482 28.6377 30.7482 32.7464C30.7482 35.4602 33.1069 37.6667 36.0236 37.6667C38.9402 37.6667 41.2989 35.4602 41.2989 32.7464C41.2989 23.1848 33.0562 15.4239 22.9112 15.4239C15.7083 15.4239 9.11414 19.4312 6.14674 25.6449C5.15761 27.6993 4.65037 30.1087 4.65037 32.7464C4.65037 34.7247 4.8279 37.8442 6.34964 41.9022C6.60327 42.5616 6.27356 43.2971 5.61414 43.5254C4.95472 43.779 4.21921 43.4239 3.99095 42.7899C2.74819 39.4674 2.1395 36.1703 2.1395 32.7464C2.1395 29.7029 2.72283 26.9384 3.86414 24.529C7.23732 17.4529 14.7192 12.8623 22.9112 12.8623C34.4511 12.8623 43.8351 21.7645 43.8351 32.721C43.8351 36.8297 40.3351 40.1775 36.0236 40.1775C31.712 40.1775 28.212 36.8297 28.212 32.721C28.212 30.0073 25.8533 27.8007 22.9366 27.8007C20.0199 27.8007 17.6612 30.0073 17.6612 32.721C17.6612 37.058 19.3351 41.116 22.404 44.1594C24.8134 46.5435 27.1214 47.8623 30.6975 48.8515C31.3822 49.029 31.7627 49.7391 31.5851 50.3986C31.4583 50.9819 30.9257 51.3623 30.3931 51.3623Z" fill="black"/>
</svg>
